<svg width="16" height="16" viewBox="0 0 16 16" fill="none" xmlns="http://www.w3.org/2000/svg">
<path d="M4.66667 1.33332H5.33333C5.70152 1.33332 6 1.63179 6 1.99999V2.66665H9.33333V1.99998C9.33333 1.63179 9.6318 1.33331 10 1.33331H10.6667C11.0349 1.33331 11.3333 1.63179 11.3333 1.99998V2.66665C12.4379 2.66665 13.3333 3.56208 13.3333 4.66665V12C13.3333 13.1046 12.4379 14 11.3333 14H4C2.89543 14 2 13.1046 2 12V4.66665C2 3.56208 2.89543 2.66665 4 2.66665V1.99999C4 1.63179 4.29847 1.33332 4.66667 1.33332ZM10 2.66665H10.6667V1.99997H10V2.66665ZM5.33333 2.66665V1.99998H4.66667V2.66665H5.33333ZM4 3.33332C3.26362 3.33332 2.66667 3.93027 2.66667 4.66665V5.33332H12.6667V4.66665C12.6667 3.93027 12.0697 3.33332 11.3333 3.33332H4ZM2.66667 12C2.66667 12.7364 3.26362 13.3333 4 13.3333H11.3333C12.0697 13.3333 12.6667 12.7364 12.6667 12V5.99999H2.66667V12ZM8 8.66665H11.3333V12H8V8.66665ZM8.66667 9.33331V11.3333H10.6667V9.33331H8.66667Z" fill="#252526"/>
</svg>
