<svg width="92" height="22" viewBox="0 0 92 22" fill="none" xmlns="http://www.w3.org/2000/svg">
<path fill-rule="evenodd" clip-rule="evenodd" d="M90.3468 14.5124C89.3597 15.4995 88.1728 15.993 86.786 15.993H86.7493C85.8845 15.993 85.0729 15.7809 84.3142 15.3567V19.3214C84.3142 19.6802 84.1877 19.9861 83.9349 20.2391C83.682 20.4918 83.3761 20.6184 83.0172 20.6184C82.6581 20.6184 82.3522 20.4918 82.0994 20.2391C81.8465 19.9861 81.7201 19.6802 81.7201 19.3214V9.34864C81.7201 7.96189 82.2136 6.77495 83.2007 5.78783C84.1797 4.80889 85.3623 4.31947 86.7493 4.31947H86.786C88.1728 4.31947 89.3597 4.80889 90.3468 5.78783C91.3258 6.77495 91.8152 7.96189 91.8152 9.34864V10.9516C91.8152 12.3465 91.3258 13.5334 90.3468 14.5124ZM89.221 9.34864C89.221 8.67978 88.9844 8.10473 88.5113 7.62324C88.0299 7.15027 87.4548 6.91353 86.786 6.91353H86.7493C86.0803 6.91353 85.5092 7.15027 85.0362 7.62324C84.5547 8.10473 84.3142 8.67978 84.3142 9.34864V10.9516C84.3142 11.6288 84.5547 12.2039 85.0362 12.677C85.5092 13.1501 86.0803 13.3867 86.7493 13.3867H86.786C87.4548 13.3867 88.0299 13.1501 88.5113 12.677C88.9844 12.2039 89.221 11.6288 89.221 10.9516V9.34864ZM74.8121 16.2255H74.7754C73.364 16.2255 72.1568 15.7238 71.1534 14.7204C70.15 13.7171 69.6483 12.5098 69.6483 11.0984V5.64097C69.6483 5.27384 69.7787 4.96393 70.0399 4.71099C70.2926 4.45003 70.6028 4.31947 70.9698 4.31947C71.337 4.31947 71.6509 4.45003 71.912 4.71099C72.1731 4.96393 72.3036 5.27384 72.3036 5.64097V11.0984C72.3036 11.7756 72.5441 12.3588 73.0255 12.8482C73.515 13.3297 74.0982 13.5702 74.7754 13.5702H74.8121C75.4973 13.5702 76.0847 13.3297 76.5741 12.8482C77.0554 12.3588 77.2961 11.7756 77.2961 11.0984V5.64097C77.2961 5.27384 77.4264 4.96393 77.6877 4.71099C77.9486 4.45003 78.2628 4.31947 78.6298 4.31947C78.9887 4.31947 79.2987 4.45003 79.5598 4.71099C79.8208 4.96393 79.9514 5.27384 79.9514 5.64097V11.0984C79.9514 12.5098 79.4497 13.7171 78.4463 14.7204C77.4429 15.7238 76.2315 16.2255 74.8121 16.2255ZM62.856 13.5702H67.1999C67.5671 13.5702 67.881 13.7008 68.1422 13.9617C68.4032 14.2229 68.5337 14.5369 68.5337 14.904C68.5337 15.271 68.4032 15.5812 68.1422 15.834C67.881 16.0951 67.5671 16.2255 67.1999 16.2255H60.1762C59.6297 16.2255 59.2341 15.9807 58.9893 15.4913C58.7446 14.9938 58.7893 14.5288 59.124 14.0964L64.5324 7.01144H60.1762C59.8092 7.01144 59.495 6.88104 59.2341 6.61991C58.9811 6.36714 58.8547 6.05697 58.8547 5.68993C58.8547 5.32279 58.9811 5.00887 59.2341 4.74774C59.495 4.49497 59.8092 4.36842 60.1762 4.36842H67.1999C67.7546 4.36842 68.1544 4.61309 68.3992 5.1026C68.6356 5.59202 68.5907 6.05697 68.2645 6.49753L62.856 13.5702ZM52.1788 13.5702H56.5227C56.8898 13.5702 57.2038 13.7008 57.4649 13.9617C57.7259 14.2229 57.8565 14.5369 57.8565 14.904C57.8565 15.271 57.7259 15.5812 57.4649 15.834C57.2038 16.0951 56.8898 16.2255 56.5227 16.2255H49.499C48.9523 16.2255 48.5568 15.9807 48.312 15.4913C48.0673 14.9938 48.1121 14.5288 48.4466 14.0964L53.8551 7.01144H49.499C49.1319 7.01144 48.8178 6.88104 48.5568 6.61991C48.3039 6.36714 48.1775 6.05697 48.1775 5.68993C48.1775 5.32279 48.3039 5.00887 48.5568 4.74774C48.8178 4.49497 49.1319 4.36842 49.499 4.36842H56.5227C57.0774 4.36842 57.4772 4.61309 57.7219 5.1026C57.9584 5.59202 57.9135 6.05697 57.5873 6.49753L52.1788 13.5702ZM45.8844 16.2255C45.6966 16.2255 45.5213 16.1888 45.3582 16.1154C44.3793 15.6748 43.6001 15.0101 43.021 14.1209C42.4417 13.2235 42.1522 12.2406 42.1522 11.1719V1.29703C42.1522 0.938172 42.2786 0.63227 42.5316 0.379328C42.7844 0.126554 43.0903 0 43.4493 0C43.8 0 44.1019 0.126554 44.3548 0.379328C44.6076 0.63227 44.7341 0.938172 44.7341 1.29703V11.1719C44.7341 11.7267 44.889 12.2406 45.1992 12.7136C45.5008 13.1786 45.9046 13.5254 46.4106 13.7537C46.7367 13.9006 46.9651 14.1413 47.0958 14.4757C47.2182 14.8103 47.2059 15.1365 47.059 15.4546C46.8306 15.9685 46.4391 16.2255 45.8844 16.2255ZM39.5278 11.6001H33.8256C33.9397 12.1713 34.2252 12.6402 34.6821 13.0073C35.1389 13.3827 35.6611 13.5702 36.2484 13.5702H36.2851C37.1171 13.5702 37.7819 13.2358 38.2796 12.5668C38.4999 12.2732 38.7893 12.0978 39.1484 12.0406C39.5155 11.9917 39.8459 12.0734 40.1396 12.2854C40.4332 12.5056 40.6045 12.7993 40.6535 13.1664C40.7105 13.5254 40.629 13.8516 40.4087 14.1453C39.9273 14.7981 39.3237 15.3078 38.5978 15.6748C37.8636 16.042 37.0927 16.2255 36.2851 16.2255H36.2484C34.837 16.2255 33.6298 15.7238 32.6264 14.7204C31.623 13.7171 31.1213 12.5098 31.1213 11.0984V9.44654C31.1213 7.98636 31.5821 6.76676 32.5041 5.78783C33.434 4.80889 34.5882 4.31947 35.967 4.31947H36.0036C37.3904 4.31947 38.5446 4.80889 39.4665 5.78783C40.3883 6.76676 40.8493 7.98636 40.8493 9.44654V10.2663C40.8493 10.6335 40.7227 10.9476 40.47 11.2085C40.2087 11.4697 39.8948 11.6001 39.5278 11.6001ZM37.5088 7.57437C37.1171 7.17474 36.6154 6.97476 36.0036 6.97476H35.967C35.3551 6.97476 34.8535 7.17474 34.4618 7.57437C34.1193 7.92521 33.903 8.38198 33.8133 8.94483H38.1572C38.0674 8.38198 37.8513 7.92521 37.5088 7.57437Z" fill="#252526"/>
<path fill-rule="evenodd" clip-rule="evenodd" d="M20.9741 14.9727C21.257 16.2279 20.4113 17.5999 18.4518 17.1258C17.7235 16.9495 16.4642 16.6893 15.0151 16.5032C15.638 17.0837 16.0276 17.9111 16.0264 18.8298C16.0242 20.5829 14.6012 22.0022 12.8481 22C11.0949 21.9977 9.67559 20.5747 9.67785 18.8217C9.67919 17.7899 10.173 16.8741 10.9362 16.2953C9.71953 16.3523 8.57428 16.5464 7.67679 16.9612C5.31611 18.0523 4.50634 16.4362 5.18781 14.6871C5.43323 14.0571 5.66713 12.7443 5.80061 11.1988C5.22865 12.0395 4.26375 12.5914 3.17021 12.5899C1.41708 12.5877 -0.00225274 11.1647 2.68431e-06 9.41155C0.00225811 7.6585 1.42526 6.23909 3.17839 6.24135C4.33801 6.24285 5.35112 6.86627 5.90386 7.79533C5.85115 6.00637 5.60832 4.31079 5.06217 3.2804C4.26024 1.76734 5.97069 1.58491 7.12404 1.58633C7.12404 1.58633 15.2918 2.3672 17.7326 1.6661C20.4024 0.899341 20.9753 3.69539 20.9753 3.69539C20.9753 3.69539 20.7125 5.3223 20.4471 7.28343C20.1818 9.24456 20.6911 13.7176 20.9741 14.9727Z" fill="#00F3D4"/>
<path fill-rule="evenodd" clip-rule="evenodd" d="M21.7302 3.28317C21.3676 4.18877 20.9569 4.99286 20.7678 6.91089C20.5524 9.09648 21.5434 12.7638 21.8169 13.9765C22.1 15.2316 21.2542 16.6037 19.2946 16.1295C18.5664 15.9533 17.3071 15.6931 15.8579 15.507C16.4809 16.0874 16.8705 16.9149 16.8693 17.8336C16.867 19.5866 15.444 21.006 13.6909 21.0038C11.9378 21.0015 10.5185 19.5785 10.5207 17.8254C10.522 16.7936 11.0158 15.8778 11.7791 15.299C10.5623 15.3561 9.41714 15.5502 8.51965 15.965C6.15889 17.056 5.3492 15.4399 6.03067 13.6908C6.27601 13.0609 6.50999 11.7481 6.64348 10.2026C6.07152 11.0433 5.10662 11.5951 4.01307 11.5937C2.25994 11.5915 0.840612 10.1685 0.842868 8.41534C0.845123 6.66221 2.26813 5.24288 4.02126 5.24514C5.18079 5.24664 6.19398 5.86997 6.74672 6.79912C6.69401 5.01016 6.45118 3.3145 5.90503 2.28419C5.10311 0.771135 6.81355 0.588613 7.96691 0.590116C7.96691 0.590116 16.177 1.20802 18.659 0.670476C21.4062 0.0754627 22.2431 2.00218 21.7302 3.28317Z" fill="#252526"/>
<path fill-rule="evenodd" clip-rule="evenodd" d="M14.6974 10.6068L16.8687 10.5596C17.0523 10.5555 17.2106 10.6174 17.3441 10.745C17.4774 10.8727 17.546 11.0283 17.55 11.2117C17.5541 11.3952 17.4922 11.5517 17.3644 11.6809C17.2367 11.8143 17.0813 11.8829 16.8977 11.8869L13.3867 11.9634C13.1135 11.9694 12.9131 11.8513 12.7853 11.6093C12.6576 11.3633 12.6749 11.1303 12.8375 10.9106L13.5669 9.91058L11.3795 9.95828C11.1062 9.96421 10.9058 9.84618 10.7782 9.60418C10.6504 9.35817 10.6677 9.12528 10.8302 8.90542L13.4567 5.30485L11.2791 5.35238C11.0956 5.3563 10.9372 5.29457 10.8038 5.16685C10.6746 5.0433 10.6081 4.8896 10.6041 4.70616C10.6001 4.52263 10.6598 4.36434 10.7834 4.23102C10.9112 4.10179 11.0668 4.03513 11.2503 4.03112L14.7613 3.9546C15.0386 3.9485 15.2411 4.06654 15.3688 4.30853C15.4924 4.55062 15.475 4.78351 15.3167 5.0073L14.5859 6.00728L16.7685 5.95975C17.0458 5.95366 17.2483 6.07169 17.376 6.31369C17.4995 6.55577 17.4821 6.78866 17.3239 7.01245L14.6974 10.6068ZM13.6044 7.35051L12.6901 8.60169L14.5513 8.56117L15.4639 7.31L13.6044 7.35051Z" fill="#00F3D4"/>
</svg>
