<svg width="61" height="21" viewBox="0 0 61 21" fill="none" xmlns="http://www.w3.org/2000/svg">
<path fill-rule="evenodd" clip-rule="evenodd" d="M59.2255 14.5124C58.2384 15.4995 57.0514 15.993 55.6647 15.993H55.6279C54.7632 15.993 53.9516 15.7809 53.1929 15.3567V19.3214C53.1929 19.6802 53.0664 19.9861 52.8136 20.2391C52.5606 20.4918 52.2547 20.6184 51.8959 20.6184C51.5368 20.6184 51.2309 20.4918 50.9781 20.2391C50.7252 19.9861 50.5988 19.6802 50.5988 19.3214V9.34864C50.5988 7.96189 51.0923 6.77495 52.0794 5.78783C53.0583 4.80889 54.241 4.31947 55.6279 4.31947H55.6647C57.0514 4.31947 58.2384 4.80889 59.2255 5.78783C60.2044 6.77495 60.6939 7.96189 60.6939 9.34864V10.9516C60.6939 12.3465 60.2044 13.5334 59.2255 14.5124ZM58.0997 9.34864C58.0997 8.67978 57.8631 8.10473 57.39 7.62324C56.9086 7.15027 56.3335 6.91353 55.6647 6.91353H55.6279C54.959 6.91353 54.3879 7.15027 53.9149 7.62324C53.4334 8.10473 53.1929 8.67978 53.1929 9.34864V10.9516C53.1929 11.6288 53.4334 12.2039 53.9149 12.677C54.3879 13.1501 54.959 13.3867 55.6279 13.3867H55.6647C56.3335 13.3867 56.9086 13.1501 57.39 12.677C57.8631 12.2039 58.0997 11.6288 58.0997 10.9516V9.34864ZM43.6908 16.2255H43.6541C42.2427 16.2255 41.0354 15.7238 40.032 14.7204C39.0287 13.7171 38.527 12.5098 38.527 11.0984V5.64097C38.527 5.27384 38.6574 4.96393 38.9185 4.71099C39.1713 4.45003 39.4815 4.31947 39.8485 4.31947C40.2156 4.31947 40.5296 4.45003 40.7907 4.71099C41.0517 4.96393 41.1823 5.27384 41.1823 5.64097V11.0984C41.1823 11.7756 41.4228 12.3588 41.9042 12.8482C42.3937 13.3297 42.9769 13.5702 43.6541 13.5702H43.6908C44.376 13.5702 44.9634 13.3297 45.4528 12.8482C45.9341 12.3588 46.1748 11.7756 46.1748 11.0984V5.64097C46.1748 5.27384 46.3051 4.96393 46.5663 4.71099C46.8273 4.45003 47.1415 4.31947 47.5085 4.31947C47.8674 4.31947 48.1774 4.45003 48.4385 4.71099C48.6995 4.96393 48.8301 5.27384 48.8301 5.64097V11.0984C48.8301 12.5098 48.3284 13.7171 47.325 14.7204C46.3216 15.7238 45.1102 16.2255 43.6908 16.2255ZM31.7347 13.5702H36.0786C36.4458 13.5702 36.7597 13.7008 37.0209 13.9617C37.2818 14.2229 37.4124 14.5369 37.4124 14.904C37.4124 15.271 37.2818 15.5812 37.0209 15.834C36.7597 16.0951 36.4458 16.2255 36.0786 16.2255H29.0549C28.5083 16.2255 28.1127 15.9807 27.868 15.4913C27.6233 14.9938 27.668 14.5288 28.0026 14.0964L33.4111 7.01144H29.0549C28.6879 7.01144 28.3737 6.88104 28.1127 6.61991C27.8598 6.36714 27.7334 6.05697 27.7334 5.68993C27.7334 5.32279 27.8598 5.00887 28.1127 4.74774C28.3737 4.49497 28.6879 4.36842 29.0549 4.36842H36.0786C36.6333 4.36842 37.0331 4.61309 37.2778 5.1026C37.5143 5.59202 37.4694 6.05697 37.1432 6.49753L31.7347 13.5702ZM21.0574 13.5702H25.4014C25.7685 13.5702 26.0824 13.7008 26.3436 13.9617C26.6046 14.2229 26.7352 14.5369 26.7352 14.904C26.7352 15.271 26.6046 15.5812 26.3436 15.834C26.0824 16.0951 25.7685 16.2255 25.4014 16.2255H18.3777C17.831 16.2255 17.4355 15.9807 17.1907 15.4913C16.946 14.9938 16.9907 14.5288 17.3253 14.0964L22.7338 7.01144H18.3777C18.0105 7.01144 17.6964 6.88104 17.4355 6.61991C17.1825 6.36714 17.0562 6.05697 17.0562 5.68993C17.0562 5.32279 17.1825 5.00887 17.4355 4.74774C17.6964 4.49497 18.0105 4.36842 18.3777 4.36842H25.4014C25.956 4.36842 26.3558 4.61309 26.6006 5.1026C26.8371 5.59202 26.7921 6.05697 26.4659 6.49753L21.0574 13.5702ZM14.7631 16.2255C14.5753 16.2255 14.3999 16.1888 14.2369 16.1154C13.2579 15.6748 12.4788 15.0101 11.8997 14.1209C11.3204 13.2235 11.0309 12.2406 11.0309 11.1719V1.29703C11.0309 0.938172 11.1573 0.63227 11.4103 0.379328C11.663 0.126554 11.9689 0 12.328 0C12.6786 0 12.9805 0.126554 13.2335 0.379328C13.4862 0.63227 13.6128 0.938172 13.6128 1.29703V11.1719C13.6128 11.7267 13.7677 12.2406 14.0778 12.7136C14.3795 13.1786 14.7833 13.5254 15.2892 13.7537C15.6154 13.9006 15.8438 14.1413 15.9745 14.4757C16.0968 14.8103 16.0846 15.1365 15.9377 15.4546C15.7093 15.9685 15.3177 16.2255 14.7631 16.2255ZM8.40645 11.6001H2.70425C2.81836 12.1713 3.10387 12.6402 3.56081 13.0073C4.01757 13.3827 4.53974 13.5702 5.12707 13.5702H5.16374C5.99582 13.5702 6.66059 13.2358 7.15829 12.5668C7.37857 12.2732 7.66801 12.0978 8.02712 12.0406C8.39417 11.9917 8.72455 12.0734 9.01826 12.2854C9.31188 12.5056 9.48321 12.7993 9.53216 13.1664C9.58913 13.5254 9.50768 13.8516 9.2874 14.1453C8.806 14.7981 8.20238 15.3078 7.47647 15.6748C6.74229 16.042 5.97135 16.2255 5.16374 16.2255H5.12707C3.71568 16.2255 2.50845 15.7238 1.50503 14.7204C0.501706 13.7171 0 12.5098 0 11.0984V9.44654C0 7.98636 0.460772 6.76676 1.38274 5.78783C2.31264 4.80889 3.46691 4.31947 4.84564 4.31947H4.88232C6.26907 4.31947 7.42325 4.80889 8.34522 5.78783C9.26702 6.76676 9.72796 7.98636 9.72796 9.44654V10.2663C9.72796 10.6335 9.60141 10.9476 9.34863 11.2085C9.08742 11.4697 8.7735 11.6001 8.40645 11.6001ZM6.38743 7.57437C5.99583 7.17474 5.49412 6.97476 4.88232 6.97476H4.84564C4.23376 6.97476 3.73214 7.17474 3.34053 7.57437C2.99795 7.92521 2.78168 8.38198 2.69197 8.94483H7.03591C6.94611 8.38198 6.73001 7.92521 6.38743 7.57437Z" fill="white"/>
</svg>
