<svg width="20" height="20" viewBox="0 0 20 20" fill="none" xmlns="http://www.w3.org/2000/svg">
<path d="M9.58323 5.83332C10.7338 5.83332 11.6666 6.76607 11.6666 7.91666C11.6666 9.06724 10.7338 9.99999 9.58323 9.99999C8.43265 9.99999 7.4999 9.06724 7.4999 7.91666C7.4999 6.76607 8.43265 5.83332 9.58323 5.83332ZM9.58323 6.66666C8.8929 6.66666 8.33323 7.22631 8.33323 7.91666C8.33323 8.60699 8.8929 9.16666 9.58323 9.16666C10.2736 9.16666 10.8332 8.60699 10.8332 7.91666C10.8332 7.22631 10.2736 6.66666 9.58323 6.66666ZM5.66696 10.2978L9.58323 16.7389L13.4995 10.2978L13.5001 10.2982C13.923 9.60407 14.1666 8.78882 14.1666 7.91666C14.1666 5.38536 12.1146 3.33332 9.58323 3.33332C7.05192 3.33332 4.9999 5.38536 4.9999 7.91666C4.9999 8.78882 5.24351 9.60407 5.6664 10.2982L5.66696 10.2978ZM14.2116 10.7307L9.58323 18.343L4.95491 10.7307L4.95425 10.7312C4.45446 9.91091 4.16656 8.94741 4.16656 7.91667C4.16656 4.92512 6.59169 2.5 9.58323 2.5C12.5747 2.5 14.9999 4.92512 14.9999 7.91667C14.9999 8.94741 14.712 9.91091 14.2122 10.7312L14.2116 10.7307Z" fill="#252526"/>
</svg>
