<svg height="512" viewBox="0 0 58 58" width="512" xmlns="http://www.w3.org/2000/svg"><g id="036---Tiki-Mask" fill="none"><path id="Shape" d="m53 20.34v-3.34c.0032948-1.1032019.8967981-1.9967052 2-2 .8063114-.0033854 1.5317303-.4906258 1.8398346-1.2357575s.138627-1.6024026-.4298346-2.1742425c-.3704612-.3798589-.8794095-.5928231-1.41-.59h-52c-.80631139.0033854-1.5317303.4906258-1.83983461 1.2357575s-.13862704 1.6024026.42983461 2.1742425c.3704612.3798589.87940947.5928231 1.41.59 1.10320187.0032948 1.9967052.8967981 2 2v3.34z" fill="#805333"/><path id="Shape" d="m48 19c5.5228475 0 10 4.4771525 10 10s-4.4771525 10-10 10h-38c-5.5228475 0-10-4.4771525-10-10s4.4771525-10 10-10z" fill="#a56a43"/><path id="Rectangle-path" d="m10 6.583h38v44.833h-38z" fill="#cb8252"/><path id="Shape" d="m48 4v4h-38v-4c0-2.209139 1.790861-4 4-4h30c2.209139 0 4 1.790861 4 4z" fill="#a56a43"/><path id="Shape" d="m48 50v4c0 2.209139-1.790861 4-4 4h-30c-2.209139 0-4-1.790861-4-4v-4z" fill="#a56a43"/><path id="Shape" d="m44 42v2c-.0032948 1.1032019-.8967981 1.9967052-2 2h-4v-4z" fill="#e4c05c"/><path id="Rectangle-path" d="m32 42h6v4h-6z" fill="#e4c05c"/><path id="Rectangle-path" d="m26 42h6v4h-6z" fill="#e4c05c"/><path id="Rectangle-path" d="m20 42h6v4h-6z" fill="#e4c05c"/><path id="Shape" d="m20 42v4h-4c-1.1032019-.0032948-1.9967052-.8967981-2-2v-2z" fill="#e4c05c"/><path id="Rectangle-path" d="m14 37h30v5h-30z" fill="#603e26"/><path id="Shape" d="m20 33v4h-6v-2c.0032948-1.1032019.8967981-1.9967052 2-2z" fill="#e4c05c"/><path id="Rectangle-path" d="m20 33h6v4h-6z" fill="#e4c05c"/><path id="Rectangle-path" d="m32 33h6v4h-6z" fill="#e4c05c"/><path id="Rectangle-path" d="m26 33h6v4h-6z" fill="#e4c05c"/><path id="Shape" d="m44 35v2h-6v-4h4c1.1032019.0032948 1.9967052.8967981 2 2z" fill="#e4c05c"/><path id="Shape" d="m22.5 27h-12.5v-13h12.5c3.5898509 0 6.5 2.9101491 6.5 6.5s-2.9101491 6.5-6.5 6.5z" fill="#ecf0f1"/><path id="Shape" d="m48 27h-12.5c-3.5898509 0-6.5-2.9101491-6.5-6.5s2.9101491-6.5 6.5-6.5h12.5z" fill="#ecf0f1"/><ellipse id="Oval" cx="19" cy="20.5" fill="#a59078" rx="5" ry="6.5"/><ellipse id="Oval" cx="19.022" cy="22" fill="#5f5346" rx="1.978" ry="2"/><ellipse id="Oval" cx="39" cy="20.5" fill="#a59078" rx="5" ry="6.5"/><path id="Shape" d="m15.34 58 2.88-3.6c.1897968-.2365713.4767035-.3742205.78-.3742205s.5902032.1376492.78.3742205l2.88 3.6z" fill="#805333"/><path id="Shape" d="m25.32 58 2.9-3.62c.186951-.2411121.4749005-.3822116.78-.3822116s.593049.1410995.78.3822116l2.9 3.62z" fill="#805333"/><path id="Shape" d="m35.32 58 2.9-3.62c.186951-.2411121.4749005-.3822116.78-.3822116s.593049.1410995.78.3822116l2.9 3.62z" fill="#805333"/><path id="Shape" d="m22.66 0-2.88 3.6c-.1897968.23657129-.4767035.37422049-.78.37422049s-.5902032-.1376492-.78-.37422049l-2.88-3.6z" fill="#805333"/><path id="Shape" d="m32.68 0-2.9 3.62c-.186951.24111205-.4749005.38221161-.78.38221161s-.593049-.14109956-.78-.38221161l-2.9-3.62z" fill="#805333"/><path id="Shape" d="m42.68 0-2.9 3.62c-.186951.24111205-.4749005.38221161-.78.38221161s-.593049-.14109956-.78-.38221161l-2.9-3.62z" fill="#805333"/><path id="Shape" d="m5 31c-.55228475 0-1-.4477153-1-1v-3c0-.5522847.44771525-1 1-1s1 .4477153 1 1v3c0 .5522847-.44771525 1-1 1z" fill="#603e26"/><path id="Shape" d="m6 28h-2c-.55228475 0-1-.4477153-1-1s.44771525-1 1-1h2c.55228475 0 1 .4477153 1 1s-.44771525 1-1 1z" fill="#603e26"/><path id="Shape" d="m53 31c-.5522847 0-1-.4477153-1-1v-3c0-.5522847.4477153-1 1-1s1 .4477153 1 1v3c0 .5522847-.4477153 1-1 1z" fill="#603e26"/><path id="Shape" d="m54 28h-2c-.5522847 0-1-.4477153-1-1s.4477153-1 1-1h2c.5522847 0 1 .4477153 1 1s-.4477153 1-1 1z" fill="#603e26"/><path id="Shape" d="m23.6600117 0c-.0000117.467.0309883.306-3.1000117 4.22-.3759227.47779622-.9496317.7575416-1.5575818.75949016-.6079501.00194855-1.1834404-.2741135-1.5624182-.74949016-3.091-3.875-3.1-3.757-3.1-4.23h2.28l2.38 2.98 2.38-2.98z" fill="#f29c1f"/><path id="Shape" d="m33.6800069 0c-.0000069.469.0259931.312-3.1200069 4.25-.3809658.47564821-.9580079.75165199-1.5674112.74970502-.6094033-.00194698-1.1846701-.28163226-1.5625888-.75970502-3.093-3.874-3.11-3.764-3.11-4.24h2.28l2.4 3 2.4-3z" fill="#f29c1f"/><path id="Shape" d="m43.6800069 0c-.0000069.469.0259931.312-3.1200069 4.25-.3809658.47564821-.9580079.75165199-1.5674112.74970502-.6094033-.00194698-1.1846701-.28163226-1.5625888-.75970502-3.093-3.874-3.11-3.764-3.11-4.24h2.28l2.4 3 2.4-3z" fill="#f29c1f"/><path id="Shape" d="m23.66 58h-2.28l-2.38-2.98-2.38 2.98h-2.2800117c.0000117-.467-.0309883-.306 3.1000117-4.22.3893173-.4559302.9581741-.7193197 1.5577044-.7212413s1.1700637.2578161 1.5622956.7112413c3.091 3.875 3.1 3.757 3.1 4.23z" fill="#f29c1f"/><path id="Shape" d="m33.68 58h-2.28l-2.4-3-2.4 3h-2.2800069c.0000069-.469-.0259931-.312 3.1200069-4.25.3930127-.4556849.9655493-.716848 1.5673001-.7149255s1.1726069.2667387 1.5626999.7249255c3.093 3.874 3.11 3.764 3.11 4.24z" fill="#f29c1f"/><path id="Shape" d="m43.68 58h-2.28l-2.4-3-2.4 3h-2.2800069c.0000069-.469-.0259931-.312 3.1200069-4.25.3930127-.4556849.9655493-.716848 1.5673001-.7149255s1.1726069.2667387 1.5626999.7249255c3.093 3.874 3.11 3.764 3.11 4.24z" fill="#f29c1f"/><g fill="#b19046"><path id="Rectangle-path" d="m19 42h2v4h-2z"/><path id="Rectangle-path" d="m25 42h2v4h-2z"/><path id="Rectangle-path" d="m31 42h2v4h-2z"/><path id="Rectangle-path" d="m37 42h2v4h-2z"/><path id="Rectangle-path" d="m19 33h2v4h-2z"/><path id="Rectangle-path" d="m25 33h2v4h-2z"/><path id="Rectangle-path" d="m31 33h2v4h-2z"/><path id="Rectangle-path" d="m37 33h2v4h-2z"/></g><ellipse id="Oval" cx="38.978" cy="22" fill="#5f5346" rx="1.978" ry="2"/></g></svg>